<mxfile host="Electron" modified="2023-09-26T01:27:13.483Z" agent="Mozilla/5.0 (Windows NT 10.0; Win64; x64) AppleWebKit/537.36 (KHTML, like Gecko) draw.io/21.6.8 Chrome/114.0.5735.289 Electron/25.5.0 Safari/537.36" etag="DcdoaIRmvwBfwqlLJiWj" version="21.6.8" type="device">
  <diagram name="Page-1" id="KmKncT3sNdJF3za34FLy">
    <mxGraphModel dx="1515" dy="1498" grid="1" gridSize="10" guides="1" tooltips="1" connect="1" arrows="1" fold="1" page="1" pageScale="1" pageWidth="827" pageHeight="1169" math="0" shadow="0">
      <root>
        <mxCell id="0" />
        <mxCell id="1" parent="0" />
        <mxCell id="vkMni4C84IbG8t9K3wJK-81" value="" style="rounded=0;whiteSpace=wrap;html=1;" vertex="1" parent="1">
          <mxGeometry x="10" y="310" width="1370" height="1220" as="geometry" />
        </mxCell>
        <mxCell id="vkMni4C84IbG8t9K3wJK-80" value="" style="endArrow=none;dashed=1;html=1;rounded=0;" edge="1" parent="1">
          <mxGeometry width="50" height="50" relative="1" as="geometry">
            <mxPoint x="1294.72" y="1520" as="sourcePoint" />
            <mxPoint x="1294.72" y="440" as="targetPoint" />
          </mxGeometry>
        </mxCell>
        <mxCell id="vkMni4C84IbG8t9K3wJK-79" value="" style="endArrow=none;dashed=1;html=1;rounded=0;" edge="1" parent="1">
          <mxGeometry width="50" height="50" relative="1" as="geometry">
            <mxPoint x="1034.72" y="1520" as="sourcePoint" />
            <mxPoint x="1034.72" y="440" as="targetPoint" />
          </mxGeometry>
        </mxCell>
        <mxCell id="vkMni4C84IbG8t9K3wJK-78" value="" style="endArrow=none;dashed=1;html=1;rounded=0;" edge="1" parent="1">
          <mxGeometry width="50" height="50" relative="1" as="geometry">
            <mxPoint x="774.72" y="1520" as="sourcePoint" />
            <mxPoint x="774.72" y="440" as="targetPoint" />
          </mxGeometry>
        </mxCell>
        <mxCell id="vkMni4C84IbG8t9K3wJK-77" value="" style="endArrow=none;dashed=1;html=1;rounded=0;" edge="1" parent="1">
          <mxGeometry width="50" height="50" relative="1" as="geometry">
            <mxPoint x="524.72" y="1520" as="sourcePoint" />
            <mxPoint x="524.72" y="440" as="targetPoint" />
          </mxGeometry>
        </mxCell>
        <mxCell id="vkMni4C84IbG8t9K3wJK-76" value="" style="endArrow=none;dashed=1;html=1;rounded=0;" edge="1" parent="1">
          <mxGeometry width="50" height="50" relative="1" as="geometry">
            <mxPoint x="289.72" y="1520" as="sourcePoint" />
            <mxPoint x="289.72" y="440" as="targetPoint" />
          </mxGeometry>
        </mxCell>
        <mxCell id="vkMni4C84IbG8t9K3wJK-75" value="" style="endArrow=none;dashed=1;html=1;rounded=0;" edge="1" parent="1">
          <mxGeometry width="50" height="50" relative="1" as="geometry">
            <mxPoint x="54.72" y="1520" as="sourcePoint" />
            <mxPoint x="54.72" y="440" as="targetPoint" />
          </mxGeometry>
        </mxCell>
        <mxCell id="vkMni4C84IbG8t9K3wJK-4" value="user" style="shape=umlActor;verticalLabelPosition=bottom;verticalAlign=top;html=1;outlineConnect=0;" vertex="1" parent="1">
          <mxGeometry x="40" y="340" width="30" height="60" as="geometry" />
        </mxCell>
        <mxCell id="vkMni4C84IbG8t9K3wJK-5" value="" style="shape=umlBoundary;whiteSpace=wrap;html=1;" vertex="1" parent="1">
          <mxGeometry x="240" y="320" width="100" height="80" as="geometry" />
        </mxCell>
        <mxCell id="vkMni4C84IbG8t9K3wJK-6" value=":TicketBookingView" style="text;html=1;align=center;verticalAlign=middle;resizable=0;points=[];autosize=1;strokeColor=none;fillColor=none;fontStyle=4" vertex="1" parent="1">
          <mxGeometry x="225" y="400" width="130" height="30" as="geometry" />
        </mxCell>
        <mxCell id="vkMni4C84IbG8t9K3wJK-9" value="" style="shape=umlBoundary;whiteSpace=wrap;html=1;" vertex="1" parent="1">
          <mxGeometry x="725" y="320" width="100" height="80" as="geometry" />
        </mxCell>
        <mxCell id="vkMni4C84IbG8t9K3wJK-10" value=":PaymentGateways" style="text;html=1;align=center;verticalAlign=middle;resizable=0;points=[];autosize=1;strokeColor=none;fillColor=none;" vertex="1" parent="1">
          <mxGeometry x="710" y="400" width="130" height="30" as="geometry" />
        </mxCell>
        <mxCell id="vkMni4C84IbG8t9K3wJK-11" value="" style="ellipse;shape=umlControl;whiteSpace=wrap;html=1;" vertex="1" parent="1">
          <mxGeometry x="490" y="320" width="70" height="80" as="geometry" />
        </mxCell>
        <mxCell id="vkMni4C84IbG8t9K3wJK-12" value=":BookingSystem" style="text;html=1;align=center;verticalAlign=middle;resizable=0;points=[];autosize=1;strokeColor=none;fillColor=none;" vertex="1" parent="1">
          <mxGeometry x="470" y="400" width="110" height="30" as="geometry" />
        </mxCell>
        <mxCell id="vkMni4C84IbG8t9K3wJK-13" value="" style="ellipse;shape=umlControl;whiteSpace=wrap;html=1;" vertex="1" parent="1">
          <mxGeometry x="1000" y="320" width="70" height="80" as="geometry" />
        </mxCell>
        <mxCell id="vkMni4C84IbG8t9K3wJK-14" value=":TicketManagementSystem" style="text;html=1;align=center;verticalAlign=middle;resizable=0;points=[];autosize=1;strokeColor=none;fillColor=none;" vertex="1" parent="1">
          <mxGeometry x="950" y="400" width="170" height="30" as="geometry" />
        </mxCell>
        <mxCell id="vkMni4C84IbG8t9K3wJK-15" value="BookingDatabase" style="shape=umlActor;verticalLabelPosition=bottom;verticalAlign=top;html=1;" vertex="1" parent="1">
          <mxGeometry x="1280" y="340" width="30" height="60" as="geometry" />
        </mxCell>
        <mxCell id="vkMni4C84IbG8t9K3wJK-16" value="" style="html=1;points=[];perimeter=orthogonalPerimeter;outlineConnect=0;targetShapes=umlLifeline;portConstraint=eastwest;newEdgeStyle={&quot;edgeStyle&quot;:&quot;elbowEdgeStyle&quot;,&quot;elbow&quot;:&quot;vertical&quot;,&quot;curved&quot;:0,&quot;rounded&quot;:0};" vertex="1" parent="1">
          <mxGeometry x="50" y="480" width="10" height="1000" as="geometry" />
        </mxCell>
        <mxCell id="vkMni4C84IbG8t9K3wJK-17" value="" style="html=1;points=[];perimeter=orthogonalPerimeter;outlineConnect=0;targetShapes=umlLifeline;portConstraint=eastwest;newEdgeStyle={&quot;edgeStyle&quot;:&quot;elbowEdgeStyle&quot;,&quot;elbow&quot;:&quot;vertical&quot;,&quot;curved&quot;:0,&quot;rounded&quot;:0};" vertex="1" parent="1">
          <mxGeometry x="285" y="480" width="10" height="1000" as="geometry" />
        </mxCell>
        <mxCell id="vkMni4C84IbG8t9K3wJK-18" value="" style="html=1;points=[];perimeter=orthogonalPerimeter;outlineConnect=0;targetShapes=umlLifeline;portConstraint=eastwest;newEdgeStyle={&quot;edgeStyle&quot;:&quot;elbowEdgeStyle&quot;,&quot;elbow&quot;:&quot;vertical&quot;,&quot;curved&quot;:0,&quot;rounded&quot;:0};" vertex="1" parent="1">
          <mxGeometry x="520" y="480" width="10" height="970" as="geometry" />
        </mxCell>
        <mxCell id="vkMni4C84IbG8t9K3wJK-19" value="" style="html=1;points=[];perimeter=orthogonalPerimeter;outlineConnect=0;targetShapes=umlLifeline;portConstraint=eastwest;newEdgeStyle={&quot;edgeStyle&quot;:&quot;elbowEdgeStyle&quot;,&quot;elbow&quot;:&quot;vertical&quot;,&quot;curved&quot;:0,&quot;rounded&quot;:0};" vertex="1" parent="1">
          <mxGeometry x="770" y="1180" width="10" height="140" as="geometry" />
        </mxCell>
        <mxCell id="vkMni4C84IbG8t9K3wJK-20" value="" style="html=1;points=[];perimeter=orthogonalPerimeter;outlineConnect=0;targetShapes=umlLifeline;portConstraint=eastwest;newEdgeStyle={&quot;edgeStyle&quot;:&quot;elbowEdgeStyle&quot;,&quot;elbow&quot;:&quot;vertical&quot;,&quot;curved&quot;:0,&quot;rounded&quot;:0};" vertex="1" parent="1">
          <mxGeometry x="1030" y="480" width="10" height="940" as="geometry" />
        </mxCell>
        <mxCell id="vkMni4C84IbG8t9K3wJK-21" value="" style="html=1;points=[];perimeter=orthogonalPerimeter;outlineConnect=0;targetShapes=umlLifeline;portConstraint=eastwest;newEdgeStyle={&quot;edgeStyle&quot;:&quot;elbowEdgeStyle&quot;,&quot;elbow&quot;:&quot;vertical&quot;,&quot;curved&quot;:0,&quot;rounded&quot;:0};" vertex="1" parent="1">
          <mxGeometry x="1290" y="480" width="10" height="940" as="geometry" />
        </mxCell>
        <mxCell id="vkMni4C84IbG8t9K3wJK-22" value="" style="endArrow=open;endFill=1;endSize=12;html=1;rounded=0;" edge="1" parent="1" source="vkMni4C84IbG8t9K3wJK-16">
          <mxGeometry width="160" relative="1" as="geometry">
            <mxPoint x="70" y="500" as="sourcePoint" />
            <mxPoint x="280" y="500" as="targetPoint" />
          </mxGeometry>
        </mxCell>
        <mxCell id="vkMni4C84IbG8t9K3wJK-23" value="viewTicketBookingInfo()" style="text;html=1;align=center;verticalAlign=middle;resizable=0;points=[];autosize=1;strokeColor=none;fillColor=none;" vertex="1" parent="1">
          <mxGeometry x="100" y="468" width="150" height="30" as="geometry" />
        </mxCell>
        <mxCell id="vkMni4C84IbG8t9K3wJK-24" value="" style="endArrow=open;endFill=1;endSize=12;html=1;rounded=0;" edge="1" parent="1" source="vkMni4C84IbG8t9K3wJK-17">
          <mxGeometry width="160" relative="1" as="geometry">
            <mxPoint x="320" y="520" as="sourcePoint" />
            <mxPoint x="520" y="520" as="targetPoint" />
          </mxGeometry>
        </mxCell>
        <mxCell id="vkMni4C84IbG8t9K3wJK-25" value="getTicketList()" style="text;html=1;align=center;verticalAlign=middle;resizable=0;points=[];autosize=1;strokeColor=none;fillColor=none;" vertex="1" parent="1">
          <mxGeometry x="355" y="490" width="100" height="30" as="geometry" />
        </mxCell>
        <mxCell id="vkMni4C84IbG8t9K3wJK-26" value="" style="endArrow=open;endFill=1;endSize=12;html=1;rounded=0;" edge="1" parent="1" source="vkMni4C84IbG8t9K3wJK-18">
          <mxGeometry width="160" relative="1" as="geometry">
            <mxPoint x="550" y="540" as="sourcePoint" />
            <mxPoint x="1030" y="540" as="targetPoint" />
          </mxGeometry>
        </mxCell>
        <mxCell id="vkMni4C84IbG8t9K3wJK-27" value="getTicketList()" style="text;html=1;align=center;verticalAlign=middle;resizable=0;points=[];autosize=1;strokeColor=none;fillColor=none;" vertex="1" parent="1">
          <mxGeometry x="720" y="510" width="100" height="30" as="geometry" />
        </mxCell>
        <mxCell id="vkMni4C84IbG8t9K3wJK-28" value="" style="endArrow=open;endFill=1;endSize=12;html=1;rounded=0;" edge="1" parent="1" source="vkMni4C84IbG8t9K3wJK-20">
          <mxGeometry width="160" relative="1" as="geometry">
            <mxPoint x="1090" y="560" as="sourcePoint" />
            <mxPoint x="1290" y="560" as="targetPoint" />
          </mxGeometry>
        </mxCell>
        <mxCell id="vkMni4C84IbG8t9K3wJK-29" value="getTicketList()" style="text;html=1;align=center;verticalAlign=middle;resizable=0;points=[];autosize=1;strokeColor=none;fillColor=none;" vertex="1" parent="1">
          <mxGeometry x="1105" y="530" width="100" height="30" as="geometry" />
        </mxCell>
        <mxCell id="vkMni4C84IbG8t9K3wJK-31" value="" style="endArrow=open;endFill=1;endSize=12;html=1;rounded=0;" edge="1" parent="1" source="vkMni4C84IbG8t9K3wJK-16">
          <mxGeometry width="160" relative="1" as="geometry">
            <mxPoint x="70" y="640" as="sourcePoint" />
            <mxPoint x="280" y="640" as="targetPoint" />
          </mxGeometry>
        </mxCell>
        <mxCell id="vkMni4C84IbG8t9K3wJK-32" value="requestTicketBooking()" style="text;html=1;align=center;verticalAlign=middle;resizable=0;points=[];autosize=1;strokeColor=none;fillColor=none;" vertex="1" parent="1">
          <mxGeometry x="90" y="610" width="150" height="30" as="geometry" />
        </mxCell>
        <mxCell id="vkMni4C84IbG8t9K3wJK-33" value="" style="endArrow=open;endFill=1;endSize=12;html=1;rounded=0;" edge="1" parent="1" source="vkMni4C84IbG8t9K3wJK-17">
          <mxGeometry width="160" relative="1" as="geometry">
            <mxPoint x="320" y="660" as="sourcePoint" />
            <mxPoint x="520" y="660" as="targetPoint" />
          </mxGeometry>
        </mxCell>
        <mxCell id="vkMni4C84IbG8t9K3wJK-34" value="requestTicketBooking()" style="text;html=1;align=center;verticalAlign=middle;resizable=0;points=[];autosize=1;strokeColor=none;fillColor=none;" vertex="1" parent="1">
          <mxGeometry x="330" y="630" width="150" height="30" as="geometry" />
        </mxCell>
        <mxCell id="vkMni4C84IbG8t9K3wJK-35" value="" style="endArrow=open;endFill=1;endSize=12;html=1;rounded=0;" edge="1" parent="1" source="vkMni4C84IbG8t9K3wJK-18">
          <mxGeometry width="160" relative="1" as="geometry">
            <mxPoint x="550" y="680" as="sourcePoint" />
            <mxPoint x="1030" y="680" as="targetPoint" />
          </mxGeometry>
        </mxCell>
        <mxCell id="vkMni4C84IbG8t9K3wJK-36" value="requestTicketBooking()" style="text;html=1;align=center;verticalAlign=middle;resizable=0;points=[];autosize=1;strokeColor=none;fillColor=none;" vertex="1" parent="1">
          <mxGeometry x="700" y="650" width="150" height="30" as="geometry" />
        </mxCell>
        <mxCell id="vkMni4C84IbG8t9K3wJK-40" value="verifyRequest()" style="html=1;align=left;spacingLeft=2;endArrow=block;rounded=0;edgeStyle=orthogonalEdgeStyle;curved=0;rounded=0;" edge="1" parent="1">
          <mxGeometry relative="1" as="geometry">
            <mxPoint x="1040" y="700" as="sourcePoint" />
            <Array as="points">
              <mxPoint x="1110" y="700" />
              <mxPoint x="1110" y="730" />
            </Array>
            <mxPoint x="1045" y="730" as="targetPoint" />
          </mxGeometry>
        </mxCell>
        <mxCell id="vkMni4C84IbG8t9K3wJK-41" value="" style="endArrow=open;endFill=1;endSize=12;html=1;rounded=0;exitX=1;exitY=0.319;exitDx=0;exitDy=0;exitPerimeter=0;" edge="1" parent="1" source="vkMni4C84IbG8t9K3wJK-20">
          <mxGeometry width="160" relative="1" as="geometry">
            <mxPoint x="1090" y="780" as="sourcePoint" />
            <mxPoint x="1290" y="780" as="targetPoint" />
          </mxGeometry>
        </mxCell>
        <mxCell id="vkMni4C84IbG8t9K3wJK-42" value="sendRequest()" style="text;html=1;align=center;verticalAlign=middle;resizable=0;points=[];autosize=1;strokeColor=none;fillColor=none;" vertex="1" parent="1">
          <mxGeometry x="1105" y="750" width="100" height="30" as="geometry" />
        </mxCell>
        <mxCell id="vkMni4C84IbG8t9K3wJK-43" value="sendTrainInfo()" style="html=1;verticalAlign=bottom;endArrow=open;dashed=1;endSize=8;edgeStyle=elbowEdgeStyle;elbow=horizontal;curved=0;rounded=0;entryX=1;entryY=0.372;entryDx=0;entryDy=0;entryPerimeter=0;" edge="1" parent="1" target="vkMni4C84IbG8t9K3wJK-20">
          <mxGeometry relative="1" as="geometry">
            <mxPoint x="1290" y="830.44" as="sourcePoint" />
            <mxPoint x="1059" y="830" as="targetPoint" />
          </mxGeometry>
        </mxCell>
        <mxCell id="vkMni4C84IbG8t9K3wJK-44" value="sendTrainInfo()" style="html=1;verticalAlign=bottom;endArrow=open;dashed=1;endSize=8;edgeStyle=elbowEdgeStyle;elbow=horizontal;curved=0;rounded=0;entryX=1;entryY=0.392;entryDx=0;entryDy=0;entryPerimeter=0;" edge="1" parent="1" target="vkMni4C84IbG8t9K3wJK-18">
          <mxGeometry relative="1" as="geometry">
            <mxPoint x="1030" y="860.44" as="sourcePoint" />
            <mxPoint x="559" y="860" as="targetPoint" />
          </mxGeometry>
        </mxCell>
        <mxCell id="vkMni4C84IbG8t9K3wJK-45" value="showTrainInfo()" style="html=1;verticalAlign=bottom;endArrow=open;dashed=1;endSize=8;edgeStyle=elbowEdgeStyle;elbow=horizontal;curved=0;rounded=0;" edge="1" parent="1">
          <mxGeometry relative="1" as="geometry">
            <mxPoint x="515" y="880.8800000000001" as="sourcePoint" />
            <mxPoint x="295" y="880" as="targetPoint" />
          </mxGeometry>
        </mxCell>
        <mxCell id="vkMni4C84IbG8t9K3wJK-47" value="showTrainInfo()" style="html=1;verticalAlign=bottom;endArrow=open;dashed=1;endSize=8;edgeStyle=elbowEdgeStyle;elbow=horizontal;curved=0;rounded=0;" edge="1" parent="1">
          <mxGeometry relative="1" as="geometry">
            <mxPoint x="280" y="900" as="sourcePoint" />
            <mxPoint x="70" y="900" as="targetPoint" />
          </mxGeometry>
        </mxCell>
        <mxCell id="vkMni4C84IbG8t9K3wJK-48" value="" style="endArrow=open;endFill=1;endSize=12;html=1;rounded=0;" edge="1" parent="1" source="vkMni4C84IbG8t9K3wJK-16">
          <mxGeometry width="160" relative="1" as="geometry">
            <mxPoint x="75" y="950" as="sourcePoint" />
            <mxPoint x="280" y="950" as="targetPoint" />
          </mxGeometry>
        </mxCell>
        <mxCell id="vkMni4C84IbG8t9K3wJK-49" value="requestTicketPayment()" style="text;html=1;align=center;verticalAlign=middle;resizable=0;points=[];autosize=1;strokeColor=none;fillColor=none;" vertex="1" parent="1">
          <mxGeometry x="95" y="920" width="150" height="30" as="geometry" />
        </mxCell>
        <mxCell id="vkMni4C84IbG8t9K3wJK-50" value="" style="endArrow=open;endFill=1;endSize=12;html=1;rounded=0;" edge="1" parent="1" source="vkMni4C84IbG8t9K3wJK-17">
          <mxGeometry width="160" relative="1" as="geometry">
            <mxPoint x="300" y="980" as="sourcePoint" />
            <mxPoint x="520" y="979.52" as="targetPoint" />
          </mxGeometry>
        </mxCell>
        <mxCell id="vkMni4C84IbG8t9K3wJK-51" value="requestTicketPayment()" style="text;html=1;align=center;verticalAlign=middle;resizable=0;points=[];autosize=1;strokeColor=none;fillColor=none;" vertex="1" parent="1">
          <mxGeometry x="325" y="950" width="150" height="30" as="geometry" />
        </mxCell>
        <mxCell id="vkMni4C84IbG8t9K3wJK-52" value="" style="endArrow=open;endFill=1;endSize=12;html=1;rounded=0;" edge="1" parent="1" source="vkMni4C84IbG8t9K3wJK-18">
          <mxGeometry width="160" relative="1" as="geometry">
            <mxPoint x="560" y="1000" as="sourcePoint" />
            <mxPoint x="1030" y="1000" as="targetPoint" />
          </mxGeometry>
        </mxCell>
        <mxCell id="vkMni4C84IbG8t9K3wJK-53" value="requestTicketPayment()" style="text;html=1;align=center;verticalAlign=middle;resizable=0;points=[];autosize=1;strokeColor=none;fillColor=none;" vertex="1" parent="1">
          <mxGeometry x="700" y="970" width="150" height="30" as="geometry" />
        </mxCell>
        <mxCell id="vkMni4C84IbG8t9K3wJK-54" value="verifyRequest()" style="html=1;align=left;spacingLeft=2;endArrow=block;rounded=0;edgeStyle=orthogonalEdgeStyle;curved=0;rounded=0;" edge="1" parent="1">
          <mxGeometry relative="1" as="geometry">
            <mxPoint x="1040" y="1020" as="sourcePoint" />
            <Array as="points">
              <mxPoint x="1110" y="1020" />
              <mxPoint x="1110" y="1050" />
            </Array>
            <mxPoint x="1045" y="1050" as="targetPoint" />
          </mxGeometry>
        </mxCell>
        <mxCell id="vkMni4C84IbG8t9K3wJK-55" value="requestVerify()" style="html=1;verticalAlign=bottom;endArrow=open;dashed=1;endSize=8;edgeStyle=elbowEdgeStyle;elbow=vertical;curved=0;rounded=0;" edge="1" parent="1" target="vkMni4C84IbG8t9K3wJK-18">
          <mxGeometry relative="1" as="geometry">
            <mxPoint x="1030" y="1080.44" as="sourcePoint" />
            <mxPoint x="569" y="1080" as="targetPoint" />
          </mxGeometry>
        </mxCell>
        <mxCell id="vkMni4C84IbG8t9K3wJK-56" value="requestVerify()" style="html=1;verticalAlign=bottom;endArrow=open;dashed=1;endSize=8;edgeStyle=elbowEdgeStyle;elbow=vertical;curved=0;rounded=0;" edge="1" parent="1" source="vkMni4C84IbG8t9K3wJK-18">
          <mxGeometry relative="1" as="geometry">
            <mxPoint x="495" y="1100" as="sourcePoint" />
            <mxPoint x="295" y="1100" as="targetPoint" />
          </mxGeometry>
        </mxCell>
        <mxCell id="vkMni4C84IbG8t9K3wJK-57" value="requestVerify()" style="html=1;verticalAlign=bottom;endArrow=open;dashed=1;endSize=8;edgeStyle=elbowEdgeStyle;elbow=vertical;curved=0;rounded=0;" edge="1" parent="1" source="vkMni4C84IbG8t9K3wJK-17">
          <mxGeometry relative="1" as="geometry">
            <mxPoint x="270" y="1120" as="sourcePoint" />
            <mxPoint x="60" y="1120" as="targetPoint" />
            <Array as="points">
              <mxPoint x="75" y="1120" />
            </Array>
          </mxGeometry>
        </mxCell>
        <mxCell id="vkMni4C84IbG8t9K3wJK-58" value="" style="endArrow=open;endFill=1;endSize=12;html=1;rounded=0;" edge="1" parent="1" source="vkMni4C84IbG8t9K3wJK-16">
          <mxGeometry width="160" relative="1" as="geometry">
            <mxPoint x="75" y="1160" as="sourcePoint" />
            <mxPoint x="280" y="1160" as="targetPoint" />
          </mxGeometry>
        </mxCell>
        <mxCell id="vkMni4C84IbG8t9K3wJK-59" value="verifyPayment()" style="text;html=1;align=center;verticalAlign=middle;resizable=0;points=[];autosize=1;strokeColor=none;fillColor=none;" vertex="1" parent="1">
          <mxGeometry x="115" y="1130" width="110" height="30" as="geometry" />
        </mxCell>
        <mxCell id="vkMni4C84IbG8t9K3wJK-60" value="" style="endArrow=open;endFill=1;endSize=12;html=1;rounded=0;" edge="1" parent="1" source="vkMni4C84IbG8t9K3wJK-17">
          <mxGeometry width="160" relative="1" as="geometry">
            <mxPoint x="320" y="1179.52" as="sourcePoint" />
            <mxPoint x="520" y="1179.52" as="targetPoint" />
          </mxGeometry>
        </mxCell>
        <mxCell id="vkMni4C84IbG8t9K3wJK-61" value="verifyPayment()" style="text;html=1;align=center;verticalAlign=middle;resizable=0;points=[];autosize=1;strokeColor=none;fillColor=none;" vertex="1" parent="1">
          <mxGeometry x="340" y="1150" width="110" height="30" as="geometry" />
        </mxCell>
        <mxCell id="vkMni4C84IbG8t9K3wJK-62" value="" style="endArrow=open;endFill=1;endSize=12;html=1;rounded=0;" edge="1" parent="1" source="vkMni4C84IbG8t9K3wJK-18">
          <mxGeometry width="160" relative="1" as="geometry">
            <mxPoint x="570" y="1199" as="sourcePoint" />
            <mxPoint x="770" y="1199" as="targetPoint" />
          </mxGeometry>
        </mxCell>
        <mxCell id="vkMni4C84IbG8t9K3wJK-63" value="verifyPayment()" style="text;html=1;align=center;verticalAlign=middle;resizable=0;points=[];autosize=1;strokeColor=none;fillColor=none;" vertex="1" parent="1">
          <mxGeometry x="590" y="1169" width="110" height="30" as="geometry" />
        </mxCell>
        <mxCell id="vkMni4C84IbG8t9K3wJK-64" value="paymentProcessing()" style="html=1;align=left;spacingLeft=2;endArrow=block;rounded=0;edgeStyle=orthogonalEdgeStyle;curved=0;rounded=0;" edge="1" parent="1">
          <mxGeometry relative="1" as="geometry">
            <mxPoint x="780" y="1220" as="sourcePoint" />
            <Array as="points">
              <mxPoint x="850" y="1220" />
              <mxPoint x="850" y="1250" />
            </Array>
            <mxPoint x="785" y="1250" as="targetPoint" />
          </mxGeometry>
        </mxCell>
        <mxCell id="vkMni4C84IbG8t9K3wJK-65" value="" style="endArrow=open;endFill=1;endSize=12;html=1;rounded=0;" edge="1" parent="1" source="vkMni4C84IbG8t9K3wJK-19">
          <mxGeometry width="160" relative="1" as="geometry">
            <mxPoint x="830" y="1300" as="sourcePoint" />
            <mxPoint x="1030" y="1300" as="targetPoint" />
          </mxGeometry>
        </mxCell>
        <mxCell id="vkMni4C84IbG8t9K3wJK-66" value="sendResult()" style="text;html=1;align=center;verticalAlign=middle;resizable=0;points=[];autosize=1;strokeColor=none;fillColor=none;" vertex="1" parent="1">
          <mxGeometry x="850" y="1270" width="90" height="30" as="geometry" />
        </mxCell>
        <mxCell id="vkMni4C84IbG8t9K3wJK-67" value="verifyTicketBooking()" style="html=1;align=left;spacingLeft=2;endArrow=block;rounded=0;edgeStyle=orthogonalEdgeStyle;curved=0;rounded=0;" edge="1" parent="1">
          <mxGeometry relative="1" as="geometry">
            <mxPoint x="1040" y="1320" as="sourcePoint" />
            <Array as="points">
              <mxPoint x="1110" y="1320" />
              <mxPoint x="1110" y="1350" />
            </Array>
            <mxPoint x="1045" y="1350" as="targetPoint" />
          </mxGeometry>
        </mxCell>
        <mxCell id="vkMni4C84IbG8t9K3wJK-68" value="provideTickets()" style="html=1;verticalAlign=bottom;endArrow=open;dashed=1;endSize=8;edgeStyle=elbowEdgeStyle;elbow=vertical;curved=0;rounded=0;" edge="1" parent="1" target="vkMni4C84IbG8t9K3wJK-18">
          <mxGeometry relative="1" as="geometry">
            <mxPoint x="1030" y="1390.29" as="sourcePoint" />
            <mxPoint x="560" y="1390" as="targetPoint" />
          </mxGeometry>
        </mxCell>
        <mxCell id="vkMni4C84IbG8t9K3wJK-69" value="provideTickets()" style="html=1;verticalAlign=bottom;endArrow=open;dashed=1;endSize=8;edgeStyle=elbowEdgeStyle;elbow=vertical;curved=0;rounded=0;" edge="1" parent="1" target="vkMni4C84IbG8t9K3wJK-17">
          <mxGeometry relative="1" as="geometry">
            <mxPoint x="520" y="1420.29" as="sourcePoint" />
            <mxPoint x="320" y="1420" as="targetPoint" />
          </mxGeometry>
        </mxCell>
        <mxCell id="vkMni4C84IbG8t9K3wJK-70" value="showTicketBooked()" style="html=1;verticalAlign=bottom;endArrow=open;dashed=1;endSize=8;edgeStyle=elbowEdgeStyle;elbow=vertical;curved=0;rounded=0;" edge="1" parent="1" target="vkMni4C84IbG8t9K3wJK-16">
          <mxGeometry relative="1" as="geometry">
            <mxPoint x="285" y="1440.29" as="sourcePoint" />
            <mxPoint x="70" y="1440.2380952380952" as="targetPoint" />
          </mxGeometry>
        </mxCell>
        <mxCell id="vkMni4C84IbG8t9K3wJK-71" value="" style="endArrow=open;endFill=1;endSize=12;html=1;rounded=0;exitX=1;exitY=0.957;exitDx=0;exitDy=0;exitPerimeter=0;" edge="1" parent="1" source="vkMni4C84IbG8t9K3wJK-20">
          <mxGeometry width="160" relative="1" as="geometry">
            <mxPoint x="1090" y="1380" as="sourcePoint" />
            <mxPoint x="1290" y="1380" as="targetPoint" />
          </mxGeometry>
        </mxCell>
        <mxCell id="vkMni4C84IbG8t9K3wJK-72" value="update()" style="text;html=1;align=center;verticalAlign=middle;resizable=0;points=[];autosize=1;strokeColor=none;fillColor=none;" vertex="1" parent="1">
          <mxGeometry x="1115" y="1350" width="70" height="30" as="geometry" />
        </mxCell>
      </root>
    </mxGraphModel>
  </diagram>
</mxfile>
